
<svg width="32px" height="32px" viewBox="0 0 32 32" version="1.1" xmlns="http://www.w3.org/2000/svg" xmlns:xlink="http://www.w3.org/1999/xlink">
    <!-- Generator: Sketch 51.3 (57544) - http://www.bohemiancoding.com/sketch -->
    <desc>Created with Sketch.</desc>
    <defs></defs>
    <g id="Page-1" stroke="none" stroke-width="1" fill="none" fill-rule="evenodd">
        <g id="event_single" transform="translate(-365.000000, -1064.000000)" fill="#000000">
            <g id="481764" transform="translate(365.000000, 1064.000000)">
                <path d="M29.3333125,19.0145 L29.3333125,5.3333125 C29.3333125,3.862625 28.1366875,2.666625 26.666625,2.666625 L22.666625,2.666625 L22.666625,0.666625 C22.6666875,0.2981875 22.3685,0 22,0 C21.6315,0 21.3333125,0.2981875 21.3333125,0.6666875 L21.3333125,2.6666875 L9.3333125,2.6666875 L9.3333125,0.6666875 C9.3333125,0.2981875 9.0351875,0 8.6666875,0 C8.2981875,0 8,0.2981875 8,0.6666875 L8,2.6666875 L2.6666875,2.6666875 C1.196625,2.6666875 0,3.862625 0,5.3333125 L0,26.666625 C0,28.1373125 1.196625,29.3333125 2.6666875,29.3333125 L19.014375,29.3333125 C20.36075,30.961 22.39475,32 24.6666875,32 C28.709625,32 32,28.7103125 32,24.6666875 C32,22.3945625 30.960875,20.360625 29.3333125,19.0145 Z M1.3333125,5.3333125 C1.3333125,4.5983125 1.931,4 2.6666875,4 L8,4 L8,5.3333125 C7.2643125,5.3333125 6.6666875,5.931625 6.6666875,6.666625 C6.6666875,7.401625 7.264375,7.9999375 8,7.9999375 C8.735625,7.9999375 9.3333125,7.401625 9.3333125,6.666625 L9.3333125,4 L21.3333125,4 L21.3333125,5.3333125 C20.597625,5.3333125 20,5.931625 20,6.666625 C20,7.401625 20.5976875,7.9999375 21.3333125,7.9999375 C22.069,7.9999375 22.666625,7.401625 22.666625,6.666625 L22.666625,4 L26.666625,4 C27.402375,4 28,4.5983125 28,5.3333125 L28,9.3333125 L1.3333125,9.3333125 L1.3333125,5.3333125 Z M2.6666875,28 C1.931,28 1.333375,27.4016875 1.333375,26.6666875 L1.333375,10.6666875 L28,10.6666875 L28,18.143 C26.9985625,17.6290625 25.8674375,17.333375 24.6666875,17.333375 C20.6236875,17.333375 17.333375,20.6230625 17.333375,24.6666875 C17.333375,25.8674375 17.6291875,26.9985625 18.143,28 L2.6666875,28 Z M24.6666875,30.6666875 C21.3580625,30.6666875 18.6666875,27.97525 18.6666875,24.6666875 C18.6666875,21.358125 21.358125,18.6666875 24.6666875,18.6666875 C27.97525,18.6666875 30.6666875,21.358125 30.6666875,24.6666875 C30.6666875,27.97525 27.97525,30.6666875 24.6666875,30.6666875 Z" id="Shape" fill-rule="nonzero"></path>
                <path d="M27.359928,24.159988 L25.439952,24.159988 L25.439952,22.240012 C25.439952,21.8862564 25.1536956,21.6 24.79994,21.6 C24.4461844,21.6 24.159988,21.8862564 24.159988,22.240012 L24.159988,24.159988 L22.240012,24.159988 C21.8862564,24.159988 21.6,24.4462444 21.6,24.8 C21.6,25.1537556 21.8862564,25.440012 22.240012,25.440012 L24.159988,25.440012 L24.159988,27.359988 C24.159988,27.7137436 24.4462444,28 24.8,28 C25.1537556,28 25.440012,27.7137436 25.440012,27.359988 L25.440012,25.440012 L27.359988,25.440012 C27.7137436,25.440012 28,25.1537556 28,24.8 C28,24.4462444 27.7136836,24.159988 27.359928,24.159988 Z" id="Path"></path>
            </g>
        </g>
    </g>
</svg>